<svg xmlns="http://www.w3.org/2000/svg" viewBox="0 0 512 512"><!--!Font Awesome Free 6.5.2 by @fontawesome - https://fontawesome.com License - https://fontawesome.com/license/free Copyright 2024 Fonticons, Inc.--><path d="M408.9 79.1c-22.4-33.9-66.1-42.3-98.8-23.6-29.5-31.5-79.1-31.1-108.3 0-47.2-27-108.7 5.1-110.7 60.8C44.8 105.4 0 140 0 187.4v57c0 32.7 14.3 64 39.2 85.6l97.7 85.1c4.3 3.7 3.1 5.6 3.1 32.9 0 17.7 14.3 32 32 32h252c17.7 0 32-14.3 32-32 0-23.5-1-30.7 4-42.4l42.8-99.7c6.1-14.2 9.2-29.2 9.2-44.6V147c0-52.8-54.3-88.7-103.1-67.9zM464 261.4a64.5 64.5 0 0 1 -5.3 25.6l-42.8 99.7c-5.2 12.2-7.9 25-7.9 38.3V432H188v-10.3c0-16.4-7.1-32-19.6-42.8l-97.7-85.1C56.3 281.3 48 263.2 48 244.4v-57c0-33.2 52-33.5 52 .7v41.2a16 16 0 0 0 5.5 12.1l7 6.1A16 16 0 0 0 139 235.4V118.9c0-33.1 52-33.7 52 .7v26.8c0 8.8 7.2 16 16 16h7c8.8 0 16-7.2 16-16v-41.1c0-33.1 52-33.7 52 .7v40.5c0 8.8 7.2 16 16 16h7c8.8 0 16-7.2 16-16v-27.4c0-33 52-33.8 52 .7v26.8c0 8.8 7.2 16 16 16h7c8.8 0 16-7.2 16-16 0-33.1 52-33.6 52 .7v114.4z"/></svg>