<svg xmlns="http://www.w3.org/2000/svg" viewBox="0 0 512 512"><!--!Font Awesome Free 6.5.2 by @fontawesome - https://fontawesome.com License - https://fontawesome.com/license/free Copyright 2024 Fonticons, Inc.--><path d="M256 480l70 0c5.1 0 10.2-.6 15.2-1.7l119-27.4C490.6 443.8 512 417 512 386.3V180.6c0-23.8-13-46-34-57.7l-98-54.9c-34.4-19.3-67.3-5.8-92.2 24.7L142.9 37c-37.9-14.6-80.6 3.7-95.6 41.2-15.1 37.6 3.6 80.4 41.9 95.1L168 192l-94-9.1c-40.8 0-74 32.8-74 73.1 0 40.3 33.2 73.1 74 73.1h87.6c-3.7 26.2 8.7 51.3 30.3 65C178.7 436.7 211 480 256 480zm0-48c-25.2 0-25.1-36.6 0-36.6 8.8 0 16-7.2 16-16v-6.9c0-8.8-7.2-16-16-16h-28c-25.2 0-25.1-36.6 0-36.6h28c8.8 0 16-7.2 16-16v-6.9c0-8.8-7.2-16-16-16H74c-34.4 0-34.4-50.3 0-50.3h182c8.8 0 16-7.2 16-16v-11.6a16 16 0 0 0 -10.3-14.9L106.4 128.5c-31.6-12.1-13.4-59.3 19.2-46.7l166.5 64.1a16 16 0 0 0 18.1-4.8l21.8-26.6c5.8-7.1 16.3-9.1 24.5-4.5l98 54.9c5.8 3.3 9.4 9.3 9.4 15.8v205.7c0 8.5-6 15.8-14.6 17.8l-119 27.4a19.7 19.7 0 0 1 -4.4 .5h-70z"/></svg>