<svg xmlns="http://www.w3.org/2000/svg" viewBox="0 0 448 512"><!--!Font Awesome Free 6.5.2 by @fontawesome - https://fontawesome.com License - https://fontawesome.com/license/free Copyright 2024 Fonticons, Inc.--><path d="M372.6 112.6v-10.8c0-43.6-40.5-76.7-83-65.5-25.6-49.5-94.1-47.5-118 .7C130.3 26.5 89.1 57.9 89.1 102v126.1c-20-7.4-43.3-5.1-62.1 8.9-29.4 21.8-35.8 63.3-14.6 93.2L132.5 498.6a32 32 0 0 0 26.1 13.4h222.9c14.9 0 27.8-10.3 31.2-24.8l30.2-131A203.6 203.6 0 0 0 448 310.6V179c0-40.6-35.5-72-75.4-66.4zm27.4 197.9c0 11.7-1.3 23.5-4 34.9L368.7 464h-201.9L51.6 302.3c-14.4-20.3 15-42.8 29.4-22.6l27.1 38.1c9 12.6 29 6.3 29-9.3V102c0-25.6 36.6-24.8 36.6 .7V256c0 8.8 7.2 16 16 16h6.9c8.8 0 16-7.2 16-16V67c0-25.7 36.6-24.8 36.6 .7V256c0 8.8 7.2 16 16 16h6.9c8.8 0 16-7.2 16-16V101.1c0-25.7 36.6-24.8 36.6 .7V256c0 8.8 7.2 16 16 16h6.9c8.8 0 16-7.2 16-16v-76.3c0-26.2 36.6-25.6 36.6-.7v131.6z"/></svg>